<svg xmlns="http://www.w3.org/2000/svg" width="25.258" height="25.467" viewBox="0 0 25.258 25.467">
  <path id="svgexport-37" d="M27.46,4H4.673a1.343,1.343,0,0,0-1.34,1.34V27.992a1.343,1.343,0,0,0,1.34,1.34h12.2V19.413H13.52V15.526H16.87V12.979c0-3.351,2.011-5.094,4.959-5.094,1.34,0,2.546.134,2.948.134V11.37H22.767c-1.608,0-1.877.8-1.877,1.877v2.413h3.753l-.536,3.887H20.757v9.919H27.19a1.343,1.343,0,0,0,1.34-1.34V5.339C28.8,4.669,28.128,4,27.458,4Z" transform="translate(-3.333 -3.999)" fill="#bbb"/>
</svg>
