<svg xmlns="http://www.w3.org/2000/svg" width="25.334" height="25.467" viewBox="0 0 25.334 25.467">
  <path id="svgexport-40" d="M26.8,4H5.2A1.823,1.823,0,0,0,3.333,5.867V27.6A1.823,1.823,0,0,0,5.2,29.467H26.8A1.823,1.823,0,0,0,28.667,27.6V5.867A1.823,1.823,0,0,0,26.8,4Zm-16,21.6H7.067V13.467H10.8V25.6ZM8.933,11.867a2.133,2.133,0,1,1,2.133-2.133,2.029,2.029,0,0,1-2.133,2.133Zm16,13.733H21.2V19.733c0-1.467,0-3.2-2-3.2S16.933,18,16.933,19.6v6H13.2V13.467h3.6v1.6a4.081,4.081,0,0,1,3.6-2c3.867,0,4.533,2.533,4.533,5.733Z" transform="translate(-3.333 -4)" fill="#bbb"/>
</svg>
