<svg xmlns="http://www.w3.org/2000/svg" width="25.593" height="25.467" viewBox="0 0 25.593 25.467">
  <path id="svgexport-39" d="M15.4,9.573a6.494,6.494,0,1,0,6.494,6.494A6.521,6.521,0,0,0,15.4,9.573Zm0,10.7a4.2,4.2,0,1,1,4.2-4.2A4.239,4.239,0,0,1,15.4,20.268ZM22.148,7.79A1.471,1.471,0,0,0,20.62,9.318a1.528,1.528,0,1,0,3.056,0A1.471,1.471,0,0,0,22.148,7.79ZM28,10.846a6.432,6.432,0,0,0-.637-3.056A6.581,6.581,0,0,0,25.84,5.5,6.581,6.581,0,0,0,23.548,3.97a14.094,14.094,0,0,0-3.056-.637H15.4a45.786,45.786,0,0,0-5.221.127A6.432,6.432,0,0,0,7.123,4.1,4.349,4.349,0,0,0,4.831,5.5,6.14,6.14,0,0,0,3.3,7.663a10.37,10.37,0,0,0-.509,3.183,45.776,45.776,0,0,0-.127,5.221,45.786,45.786,0,0,0,.127,5.221,6.432,6.432,0,0,0,.637,3.056,6.581,6.581,0,0,0,1.528,2.292,6.581,6.581,0,0,0,2.292,1.528,14.094,14.094,0,0,0,3.056.637H15.4a45.786,45.786,0,0,0,5.221-.127,6.433,6.433,0,0,0,3.056-.637,7.023,7.023,0,0,0,3.82-3.82,14.094,14.094,0,0,0,.637-3.056c0-1.4.127-1.783.127-5.221A33.079,33.079,0,0,0,28,10.847ZM25.713,21.159a7.809,7.809,0,0,1-.382,2.419,3.8,3.8,0,0,1-.891,1.4,3.29,3.29,0,0,1-1.4.891,7.809,7.809,0,0,1-2.419.382c-1.4,0-1.783.127-5.093.127a44.348,44.348,0,0,1-5.093-.127,7.809,7.809,0,0,1-2.419-.382,2.088,2.088,0,0,1-1.528-.891,3.29,3.29,0,0,1-.891-1.4,4.867,4.867,0,0,1-.509-2.419c0-1.4-.127-1.783-.127-5.093a44.347,44.347,0,0,1,.127-5.093A7.809,7.809,0,0,1,5.47,8.555a2.874,2.874,0,0,1,1.019-1.4,3.29,3.29,0,0,1,1.4-.891,4.867,4.867,0,0,1,2.419-.509c1.4,0,1.783-.127,5.093-.127a44.348,44.348,0,0,1,5.093.127,7.809,7.809,0,0,1,2.419.382,2.874,2.874,0,0,1,1.4,1.019,3.29,3.29,0,0,1,.891,1.4,4.867,4.867,0,0,1,.509,2.419c0,1.4.127,1.783.127,5.093a44.347,44.347,0,0,1-.127,5.093Z" transform="translate(-2.667 -3.333)" fill="#bbb"/>
</svg>
