<svg xmlns="http://www.w3.org/2000/svg" width="31.358" height="25.467" viewBox="0 0 31.358 25.467">
  <path id="svgexport-38" d="M12.669,31.467c11.779,0,18.3-9.869,18.3-18.3v-.8a12.662,12.662,0,0,0,3.184-3.343,13.745,13.745,0,0,1-3.661.955,6.186,6.186,0,0,0,2.865-3.5,11.779,11.779,0,0,1-4.139,1.591A6.261,6.261,0,0,0,24.606,6a6.385,6.385,0,0,0-6.366,6.366A4.417,4.417,0,0,0,18.4,13.8,17.7,17.7,0,0,1,5.028,7.114a7.4,7.4,0,0,0-.8,3.343A6.638,6.638,0,0,0,7.1,15.868a5.5,5.5,0,0,1-2.865-.8v.159A6.5,6.5,0,0,0,9.325,21.6a5.983,5.983,0,0,1-1.751.159A3.515,3.515,0,0,1,6.3,21.6a6.355,6.355,0,0,0,6.049,4.456A12.66,12.66,0,0,1,4.39,28.759,5.981,5.981,0,0,1,2.8,28.6a19.277,19.277,0,0,0,9.869,2.865Z" transform="translate(-2.799 -6)" fill="#bbb"/>
</svg>
