<svg xmlns="http://www.w3.org/2000/svg" width="34.571" height="24.2" viewBox="0 0 34.571 24.2">
  <path id="svgexport-41" d="M36.891,12.519a7.537,7.537,0,0,0-1.383-3.457A4.468,4.468,0,0,0,32.05,7.678c-4.839-.346-12.1-.346-12.1-.346s-7.26,0-12.1.346A4.47,4.47,0,0,0,4.4,9.061a7.537,7.537,0,0,0-1.383,3.457,51.036,51.036,0,0,0-.346,5.532v2.593a52.13,52.13,0,0,0,.346,5.7A7.537,7.537,0,0,0,4.4,29.8,6.463,6.463,0,0,0,8.2,31.36c2.765.172,11.754.172,11.754.172s7.26,0,12.1-.346A5.252,5.252,0,0,0,35.508,29.8a7.537,7.537,0,0,0,1.383-3.457,51.036,51.036,0,0,0,.346-5.532V18.221a52.13,52.13,0,0,0-.346-5.7ZM16.322,23.927v-9.68l9.334,4.839-9.334,4.839Z" transform="translate(-2.666 -7.332)" fill="#bbb"/>
</svg>
