<svg id="apps" xmlns="http://www.w3.org/2000/svg" width="27.25" height="27.25" viewBox="0 0 27.25 27.25">
  <path id="Path_54" data-name="Path 54" d="M7.948,0H4.542A4.542,4.542,0,0,0,0,4.542V7.948A4.542,4.542,0,0,0,4.542,12.49H7.948A4.542,4.542,0,0,0,12.49,7.948V4.542A4.542,4.542,0,0,0,7.948,0Zm2.271,7.948a2.271,2.271,0,0,1-2.271,2.271H4.542A2.271,2.271,0,0,1,2.271,7.948V4.542A2.271,2.271,0,0,1,4.542,2.271H7.948a2.271,2.271,0,0,1,2.271,2.271Z" fill="#b1b1b1"/>
  <path id="Path_55" data-name="Path 55" d="M20.948,0H17.542A4.542,4.542,0,0,0,13,4.542V7.948a4.542,4.542,0,0,0,4.542,4.542h3.406A4.542,4.542,0,0,0,25.49,7.948V4.542A4.542,4.542,0,0,0,20.948,0Zm2.271,7.948a2.271,2.271,0,0,1-2.271,2.271H17.542a2.271,2.271,0,0,1-2.271-2.271V4.542a2.271,2.271,0,0,1,2.271-2.271h3.406a2.271,2.271,0,0,1,2.271,2.271Z" transform="translate(1.76)" fill="#b1b1b1"/>
  <path id="Path_56" data-name="Path 56" d="M7.948,13H4.542A4.542,4.542,0,0,0,0,17.542v3.406A4.542,4.542,0,0,0,4.542,25.49H7.948a4.542,4.542,0,0,0,4.542-4.542V17.542A4.542,4.542,0,0,0,7.948,13Zm2.271,7.948a2.271,2.271,0,0,1-2.271,2.271H4.542a2.271,2.271,0,0,1-2.271-2.271V17.542a2.271,2.271,0,0,1,2.271-2.271H7.948a2.271,2.271,0,0,1,2.271,2.271Z" transform="translate(0 1.76)" fill="#b1b1b1"/>
  <path id="Path_57" data-name="Path 57" d="M20.948,13H17.542A4.542,4.542,0,0,0,13,17.542v3.406a4.542,4.542,0,0,0,4.542,4.542h3.406a4.542,4.542,0,0,0,4.542-4.542V17.542A4.542,4.542,0,0,0,20.948,13Zm2.271,7.948a2.271,2.271,0,0,1-2.271,2.271H17.542a2.271,2.271,0,0,1-2.271-2.271V17.542a2.271,2.271,0,0,1,2.271-2.271h3.406a2.271,2.271,0,0,1,2.271,2.271Z" transform="translate(1.76 1.76)" fill="#b1b1b1"/>
</svg>
