<svg xmlns="http://www.w3.org/2000/svg" width="20" height="17.573" viewBox="0 0 20 17.573">
  <path id="heart" d="M14.577,1.917A5.331,5.331,0,0,0,10,4.666,5.331,5.331,0,0,0,5.414,1.917,5.664,5.664,0,0,0,0,7.79c0,3.788,3.987,7.924,7.33,10.729a4.143,4.143,0,0,0,5.331,0c3.344-2.8,7.33-6.941,7.33-10.729a5.664,5.664,0,0,0-5.414-5.873ZM11.59,17.244a2.476,2.476,0,0,1-3.19,0C4.12,13.653,1.665,10.208,1.665,7.79A4,4,0,0,1,5.414,3.583,4,4,0,0,1,9.162,7.79a.833.833,0,0,0,1.666,0,4,4,0,0,1,3.748-4.207A4,4,0,0,1,18.325,7.79c0,2.418-2.455,5.863-6.735,9.451Z" transform="translate(0.005 -1.917)" fill="#8a8a8a"/>
</svg>
