<svg xmlns="http://www.w3.org/2000/svg" width="20" height="20" viewBox="0 0 20 20">
  <g id="list" transform="translate(-8 -4.333)">
    <path id="Path_61" data-name="Path 61" d="M7.111,6.667H24.889A1.238,1.238,0,0,0,26,5.333,1.238,1.238,0,0,0,24.889,4H7.111A1.238,1.238,0,0,0,6,5.333,1.238,1.238,0,0,0,7.111,6.667Z" transform="translate(2 0.333)" fill="#b1b1b1"/>
    <path id="Path_62" data-name="Path 62" d="M24.889,11H7.111A1.238,1.238,0,0,0,6,12.333a1.238,1.238,0,0,0,1.111,1.333H24.889A1.238,1.238,0,0,0,26,12.333,1.238,1.238,0,0,0,24.889,11Z" transform="translate(2 2)" fill="#b1b1b1"/>
    <path id="Path_63" data-name="Path 63" d="M24.889,18H7.111A1.238,1.238,0,0,0,6,19.333a1.238,1.238,0,0,0,1.111,1.333H24.889A1.238,1.238,0,0,0,26,19.333,1.238,1.238,0,0,0,24.889,18Z" transform="translate(2 3.667)" fill="#b1b1b1"/>
  </g>
</svg>
