<svg xmlns="http://www.w3.org/2000/svg" width="20.658" height="20" viewBox="0 0 20.658 20">
  <path id="star" d="M20.522,7.6a2.737,2.737,0,0,0-2.64-1.916H14.12L12.978,2.12a2.778,2.778,0,0,0-5.291,0L6.544,5.681H2.783A2.778,2.778,0,0,0,1.147,10.7L4.208,12.94l-1.164,3.6a2.779,2.779,0,0,0,4.291,3.094l3-2.206,3,2.2a2.778,2.778,0,0,0,4.29-3.092l-1.164-3.6L19.521,10.7a2.735,2.735,0,0,0,1-3.1ZM18.5,9.311l-3.568,2.608a.861.861,0,0,0-.312.961l1.356,4.193a1.056,1.056,0,0,1-1.631,1.175l-3.508-2.583a.861.861,0,0,0-1.019,0L6.314,18.248a1.056,1.056,0,0,1-1.636-1.175l1.36-4.193a.861.861,0,0,0-.312-.961L2.159,9.311A1.056,1.056,0,0,1,2.783,7.4H7.173a.861.861,0,0,0,.82-.6L9.327,2.646a1.056,1.056,0,0,1,2.011,0l1.334,4.159a.861.861,0,0,0,.82.6h4.391a1.056,1.056,0,0,1,.623,1.909Z" transform="translate(-0.008 -0.19)" fill="#8a8a8a"/>
</svg>
