<svg id="comment" xmlns="http://www.w3.org/2000/svg" width="19.981" height="20" viewBox="0 0 19.981 20">
  <path id="Path_44" data-name="Path 44" d="M19.98,9.359A10,10,0,1,0,10,19.976h5.813a4.167,4.167,0,0,0,4.162-4.162Zm-1.665,6.454a2.5,2.5,0,0,1-2.5,2.5H10A8.359,8.359,0,0,1,3.78,15.528,8.256,8.256,0,0,1,1.719,9.023,8.361,8.361,0,0,1,8.925,1.729a8.8,8.8,0,0,1,1.082-.068,8.259,8.259,0,0,1,5.31,1.915,8.359,8.359,0,0,1,3,5.862Z" transform="translate(0.001 0.024)" fill="#8a8a8a"/>
  <path id="Path_45" data-name="Path 45" d="M8,9h4a1,1,0,0,0,0-2H8A1,1,0,0,0,8,9Z" transform="translate(-1.562 -1.259)" fill="#8a8a8a"/>
  <path id="Path_46" data-name="Path 46" d="M16,11H8a1,1,0,0,0,0,2h8a1,1,0,0,0,0-2Z" transform="translate(-2.009 -1.99)" fill="#8a8a8a"/>
  <path id="Path_47" data-name="Path 47" d="M16,15H8a1,1,0,0,0,0,2h8a1,1,0,0,0,0-2Z" transform="translate(-2.009 -2.721)" fill="#8a8a8a"/>
</svg>
