<svg xmlns="http://www.w3.org/2000/svg" xmlns:xlink="http://www.w3.org/1999/xlink" width="16" height="16" viewBox="0 0 16 16">
  <defs>
    <clipPath id="clip-path">
      <rect id="Rectangle_48" data-name="Rectangle 48" width="16" height="16" fill="#7d7d7d"/>
    </clipPath>
  </defs>
  <g id="toman" clip-path="url(#clip-path)">
    <path id="Path_43" data-name="Path 43" d="M3.494,1.991l.873-.848L5.258,2l-.887.847-.878-.856ZM7.185,4.825A2.427,2.427,0,0,1,6.639,6.5a2.176,2.176,0,0,1-.895.577,3.715,3.715,0,0,1-1.238.186H3.872a3.2,3.2,0,0,1-1.3-.255,2.337,2.337,0,0,1-1.029-.843,2.558,2.558,0,0,1-.4-1.426c0-.067,0-.134,0-.2a5.6,5.6,0,0,1,.6-2.088L3,3a4.338,4.338,0,0,0-.479,1.6c0,.046,0,.091,0,.137a1.213,1.213,0,0,0,.19.706,1.014,1.014,0,0,0,.571.4,1.641,1.641,0,0,0,.318.069,2.212,2.212,0,0,0,.278.016h.634a1.525,1.525,0,0,0,1.066-.279,1.16,1.16,0,0,0,.24-.835V2.309H7.184V4.825Zm6.209,3.639-.823-.8.81-.807.84.808-.827.8Zm-3.264.352a1.835,1.835,0,0,1,1.478.65,2.189,2.189,0,0,1,.509,1.478v.416h.206v0h.469a1.075,1.075,0,0,0,.534-.1.317.317,0,0,0,.16-.295v-.079c0-.278.019-1.193,0-1.274L14.857,9.2V11a1.6,1.6,0,0,1-.328.986,2,2,0,0,1-1.709.694H12.1a2.054,2.054,0,0,1-1.277,1.8,4.068,4.068,0,0,1-1.071.3,6.68,6.68,0,0,1-1.045.077V13.531a3.442,3.442,0,0,0,1.577-.282.661.661,0,0,0,.43-.57H10.13a2.081,2.081,0,0,1-1.272-.387,1.579,1.579,0,0,1-.629-1.349,2.354,2.354,0,0,1,.419-1.417,1.7,1.7,0,0,1,1.481-.711Zm.609,2.544v-.416a.963.963,0,0,0-.163-.59.53.53,0,0,0-.446-.214.546.546,0,0,0-.453.214.806.806,0,0,0-.155.513.743.743,0,0,0,0,.077.379.379,0,0,0,.2.323.791.791,0,0,0,.4.091h.609Zm.118-3.695.823.8.827-.8-.84-.808Zm-7.65,5.586h.034a1.567,1.567,0,0,0,1.071-.331c.027.014.074.04.137.078l.085.045.093.048a4.136,4.136,0,0,0,.433.206,2.871,2.871,0,0,0,1.117.251,1.39,1.39,0,0,0,.994-.389,1.936,1.936,0,0,0,.513-1.47A2.5,2.5,0,0,0,7.3,10.381,1.666,1.666,0,0,0,5.815,9.6a1.783,1.783,0,0,0-1.419.657,2.444,2.444,0,0,0-.336.521,1.859,1.859,0,0,0-.1.218.576.576,0,0,0-.034.089q-.013.034-.025.069a3.482,3.482,0,0,1-.234.606.633.633,0,0,1-.488.168.446.446,0,0,1-.293-.087.461.461,0,0,1-.1-.339V8L1.419,7.429V11.5a1.908,1.908,0,0,0,.163.8,1.5,1.5,0,0,0,.331.472,1.6,1.6,0,0,0,.491.32,2.061,2.061,0,0,0,.76.155h.041Zm3.145-1.159a.889.889,0,0,0,.05-.4.992.992,0,0,0-.189-.537.494.494,0,0,0-.4-.23.587.587,0,0,0-.511.354,1.514,1.514,0,0,0-.13.3q-.025.068-.046.137l-.017.061-.017.053a1.986,1.986,0,0,0,.622.335,1.612,1.612,0,0,0,.495.105c.05,0,.1-.057.143-.174Z" fill="#7d7d7d" fill-rule="evenodd"/>
  </g>
</svg>
