<svg xmlns="http://www.w3.org/2000/svg" width="20" height="20" viewBox="0 0 20 20">
  <path id="users-alt" d="M10,13.333A3.333,3.333,0,1,1,13.333,10,3.333,3.333,0,0,1,10,13.333Zm0-5A1.667,1.667,0,1,0,11.667,10,1.667,1.667,0,0,0,10,8.333Zm5,10.833a5,5,0,0,0-10,0,.833.833,0,1,0,1.667,0,3.333,3.333,0,0,1,6.667,0,.833.833,0,1,0,1.667,0Zm0-12.5a3.333,3.333,0,1,1,3.333-3.333A3.333,3.333,0,0,1,15,6.667Zm0-5a1.667,1.667,0,1,0,1.667,1.667A1.667,1.667,0,0,0,15,1.667ZM20,12.5a5.005,5.005,0,0,0-5-5,.833.833,0,1,0,0,1.667A3.333,3.333,0,0,1,18.333,12.5.833.833,0,0,0,20,12.5ZM5,6.667A3.333,3.333,0,1,1,8.333,3.333,3.333,3.333,0,0,1,5,6.667Zm0-5A1.667,1.667,0,1,0,6.667,3.333,1.667,1.667,0,0,0,5,1.667ZM1.667,12.5A3.333,3.333,0,0,1,5,9.167.833.833,0,0,0,5,7.5a5,5,0,0,0-5,5,.833.833,0,0,0,1.667,0Z" fill="#8a8a8a"/>
</svg>
