<svg xmlns="http://www.w3.org/2000/svg" width="16" height="24" viewBox="0 0 16 24">
  <path id="mobile-notch" d="M15.045,0c-.027,0-6.063,0-6.09,0A5.006,5.006,0,0,0,4,5V19a5.006,5.006,0,0,0,5,5h6a5.006,5.006,0,0,0,5-5V5A5.007,5.007,0,0,0,15.045,0ZM18,19a3,3,0,0,1-3,3H9a3,3,0,0,1-3-3V5A3.006,3.006,0,0,1,8.411,2.058l.694,1.389A1,1,0,0,0,10,4h4a1,1,0,0,0,.9-.553l.694-1.389A3,3,0,0,1,18,5V19Zm-5,1H11a1,1,0,0,1-1-1h0a1,1,0,0,1,1-1h2a1,1,0,0,1,1,1h0A1,1,0,0,1,13,20Z" transform="translate(-4 0.001)" opacity="0.24"/>
</svg>
